<svg width="34" height="34" viewBox="0 0 34 34" fill="none" xmlns="http://www.w3.org/2000/svg">
<path fill-rule="evenodd" clip-rule="evenodd" d="M7.08366 9.28832C7.08366 7.57652 7.76367 5.93484 8.97409 4.72441C10.1845 3.51399 11.8262 2.83398 13.538 2.83398C14.6671 2.83398 15.5837 3.75057 15.5837 4.87965V14.547C16.0144 14.7957 16.372 15.1533 16.6207 15.584C16.8694 16.0147 17.0003 16.5033 17.0003 17.0007V29.7507C17.0003 30.1264 16.8511 30.4867 16.5854 30.7524C16.3197 31.0181 15.9594 31.1673 15.5837 31.1673H7.08366C6.70794 31.1673 6.3476 31.0181 6.08192 30.7524C5.81625 30.4867 5.66699 30.1264 5.66699 29.7507V17.0007C5.667 16.5033 5.79793 16.0147 6.0466 15.584C6.29528 15.1533 6.65295 14.7957 7.08366 14.547V9.28832ZM9.91699 14.1673H12.7503V5.75232C11.9468 5.93246 11.2284 6.38072 10.7135 7.02338C10.1985 7.66603 9.91764 8.46481 9.91699 9.28832V14.1673ZM8.50033 17.0007V19.834H14.167V17.0007H8.50033ZM14.167 22.6673H8.50033V28.334H14.167V22.6673ZM18.417 19.834C18.417 18.3311 19.014 16.8898 20.0767 15.827C21.1394 14.7643 22.5808 14.1673 24.0837 14.1673C25.5866 14.1673 27.0279 14.7643 28.0906 15.827C29.1533 16.8898 29.7503 18.3311 29.7503 19.834V29.7507C29.7503 30.1264 29.6011 30.4867 29.3354 30.7524C29.0697 31.0181 28.7094 31.1673 28.3337 31.1673H19.8337C19.4579 31.1673 19.0976 31.0181 18.8319 30.7524C18.5662 30.4867 18.417 30.1264 18.417 29.7507V19.834ZM24.0837 17.0007C23.3322 17.0007 22.6115 17.2992 22.0802 17.8305C21.5488 18.3619 21.2503 19.0825 21.2503 19.834V28.334H26.917V19.834C26.917 19.0825 26.6185 18.3619 26.0871 17.8305C25.5558 17.2992 24.8351 17.0007 24.0837 17.0007Z" fill="white"/>
</svg>
