<svg width="34" height="34" viewBox="0 0 34 34" fill="none" xmlns="http://www.w3.org/2000/svg">
<path d="M1.41699 31.166C1.41699 31.931 2.05449 32.5827 2.83366 32.5827H21.2503C22.0437 32.5827 22.667 31.931 22.667 31.166V29.7493H1.41699V31.166ZM12.042 12.7493C6.72949 12.7493 1.41699 15.5827 1.41699 21.2493H22.667C22.667 15.5827 17.3545 12.7493 12.042 12.7493ZM5.12866 18.416C6.70116 16.2202 10.0445 15.5827 12.042 15.5827C14.0395 15.5827 17.3828 16.2202 18.9553 18.416H5.12866ZM1.41699 24.0827H22.667V26.916H1.41699V24.0827ZM25.5003 7.08268V1.41602H22.667V7.08268H15.5837L15.9095 9.91602H29.4528L27.4695 29.7493H25.5003V32.5827H27.937C29.127 32.5827 30.1045 31.6618 30.2462 30.5002L32.5837 7.08268H25.5003Z" fill="black"/>
</svg>
