<svg width="104" height="46" viewBox="0 0 104 46" fill="none" xmlns="http://www.w3.org/2000/svg">
<path id="Vector" d="M0.84082 16.454V0.544922H3.29537V7.3631H9.97718V0.544922H12.4317V16.454H9.97718V9.59038H3.29537V16.454H0.84082ZM20.9604 16.7722C19.824 16.7722 18.8313 16.5373 17.9831 16.0676C17.1345 15.5828 16.4676 14.9086 15.9831 14.0449C15.5131 13.1661 15.2785 12.151 15.2785 10.9995V10.7267C15.2785 9.56006 15.5131 8.54492 15.9831 7.68129C16.4526 6.80251 17.104 6.12824 17.9376 5.65856C18.7858 5.17369 19.7631 4.93129 20.8695 4.93129C21.9449 4.93129 22.8845 5.17369 23.6876 5.65856C24.5058 6.12824 25.1422 6.78733 25.5967 7.63583C26.0513 8.48433 26.2785 9.47674 26.2785 10.6131V11.4995H17.6649C17.6949 12.4843 18.0208 13.2722 18.6422 13.8631C19.2785 14.4389 20.0663 14.7267 21.0058 14.7267C21.8845 14.7267 22.5435 14.5298 22.9831 14.1358C23.4376 13.7419 23.7858 13.2873 24.0285 12.7722L25.9604 13.7722C25.7481 14.1964 25.4376 14.6434 25.0285 15.1131C24.6345 15.5828 24.1117 15.9767 23.4604 16.2949C22.8085 16.6131 21.9754 16.7722 20.9604 16.7722ZM17.6876 9.70401H23.8922C23.8313 8.85551 23.5285 8.19642 22.9831 7.72674C22.4376 7.24188 21.7254 6.99947 20.8467 6.99947C19.9676 6.99947 19.2481 7.24188 18.6876 7.72674C18.1422 8.19642 17.8085 8.85551 17.6876 9.70401ZM32.5735 16.7722C31.7704 16.7722 31.0508 16.6358 30.4145 16.3631C29.7931 16.0904 29.2931 15.6889 28.9145 15.1586C28.5508 14.6282 28.369 13.9843 28.369 13.2267C28.369 12.454 28.5508 11.8176 28.9145 11.3176C29.2931 10.8025 29.8008 10.4161 30.4372 10.1586C31.0885 9.90097 31.8235 9.77219 32.6417 9.77219H36.0508V9.04492C36.0508 8.39342 35.8535 7.87069 35.4599 7.47674C35.0658 7.08279 34.4599 6.88583 33.6417 6.88583C32.8385 6.88583 32.2249 7.07524 31.8008 7.45401C31.3763 7.83279 31.0963 8.32524 30.9599 8.93129L28.7781 8.22674C28.9599 7.62069 29.2476 7.07524 29.6417 6.59038C30.0508 6.09038 30.5885 5.68888 31.2554 5.38583C31.9217 5.08279 32.7249 4.93129 33.6645 4.93129C35.119 4.93129 36.2626 5.30251 37.0963 6.04492C37.9295 6.78733 38.3463 7.84038 38.3463 9.20401V13.8176C38.3463 14.2722 38.5581 14.4995 38.9826 14.4995H39.9372V16.454H38.1872C37.6567 16.454 37.2249 16.3176 36.8917 16.0449C36.5581 15.7722 36.3917 15.401 36.3917 14.9313V14.8631H36.0508C35.9295 15.0904 35.7476 15.3555 35.5054 15.6586C35.2626 15.9616 34.9067 16.2267 34.4372 16.454C33.9672 16.6661 33.3463 16.7722 32.5735 16.7722ZM32.9145 14.8404C33.8535 14.8404 34.6113 14.5752 35.1872 14.0449C35.7626 13.4995 36.0508 12.7571 36.0508 11.8176V11.5904H32.7781C32.1567 11.5904 31.6567 11.7267 31.2781 11.9995C30.899 12.2571 30.7099 12.6434 30.7099 13.1586C30.7099 13.6737 30.9067 14.0828 31.3008 14.3858C31.6945 14.6889 32.2326 14.8404 32.9145 14.8404ZM42.2131 16.454V0.544922H44.554V16.454H42.2131ZM52.2326 16.454C51.5508 16.454 51.0054 16.2495 50.5963 15.8404C50.2022 15.4313 50.0054 14.8858 50.0054 14.204V7.22674H46.9145V5.24947H50.0054V1.54492H52.3463V5.24947H55.6872V7.22674H52.3463V13.7949C52.3463 14.2495 52.5585 14.4767 52.9826 14.4767H55.3235V16.454H52.2326ZM58.4376 16.454V0.544922H60.7785V6.84038H61.1422C61.2935 6.55251 61.5058 6.27219 61.7785 5.99947C62.0663 5.72674 62.4376 5.50706 62.8922 5.34038C63.3617 5.15856 63.9526 5.06765 64.6649 5.06765C65.5131 5.06765 66.2631 5.25706 66.9149 5.63583C67.5813 6.0146 68.104 6.55251 68.4831 7.24947C68.8617 7.93129 69.0513 8.75706 69.0513 9.72674V16.454H66.7104V9.90856C66.7104 8.93888 66.4676 8.22674 65.9831 7.77219C65.4981 7.30251 64.8313 7.06765 63.9831 7.06765C63.0131 7.06765 62.2331 7.38583 61.6422 8.02219C61.0663 8.65856 60.7785 9.58278 60.7785 10.7949V16.454H58.4376ZM0.84082 41.454V25.5449H3.29537V41.454H0.84082ZM6.67946 41.454V30.2495H8.97491V31.9313H9.33855C9.55082 31.4767 9.92946 31.0525 10.4749 30.6586C11.0204 30.2646 11.8313 30.0676 12.9067 30.0676C13.7554 30.0676 14.5054 30.2571 15.1567 30.6358C15.8235 31.0146 16.3463 31.5525 16.7249 32.2495C17.104 32.9313 17.2931 33.7571 17.2931 34.7267V41.454H14.9522V34.9086C14.9522 33.9389 14.7099 33.2267 14.2249 32.7722C13.7404 32.3025 13.0735 32.0676 12.2249 32.0676C11.2554 32.0676 10.4749 32.3858 9.884 33.0222C9.30855 33.6586 9.02036 34.5828 9.02036 35.7949V41.454H6.67946ZM25.2531 41.7722C23.829 41.7722 22.6472 41.454 21.7076 40.8176C20.7681 40.1813 20.1926 39.2191 19.9804 37.9313L22.1622 37.4086C22.2835 38.0298 22.4881 38.5222 22.7758 38.8858C23.0635 39.2495 23.4199 39.5071 23.844 39.6586C24.2835 39.8101 24.7531 39.8858 25.2531 39.8858C25.9954 39.8858 26.5635 39.7419 26.9576 39.454C27.3667 39.1661 27.5713 38.7949 27.5713 38.3404C27.5713 37.8858 27.3817 37.5525 27.0031 37.3404C26.6245 37.1282 26.0635 36.954 25.3213 36.8176L24.5485 36.6813C23.7908 36.5449 23.1017 36.348 22.4804 36.0904C21.859 35.8328 21.3667 35.4767 21.0031 35.0222C20.6395 34.5676 20.4576 33.9843 20.4576 33.2722C20.4576 32.2116 20.8517 31.3934 21.6395 30.8176C22.4272 30.2267 23.4726 29.9313 24.7758 29.9313C26.0335 29.9313 27.0635 30.2191 27.8667 30.7949C28.6849 31.3555 29.2154 32.1207 29.4576 33.0904L27.2758 33.704C27.1395 33.0222 26.8517 32.5449 26.4122 32.2722C25.9726 31.9843 25.4272 31.8404 24.7758 31.8404C24.1395 31.8404 23.6395 31.9616 23.2758 32.204C22.9122 32.4313 22.7304 32.7571 22.7304 33.1813C22.7304 33.6358 22.9045 33.9691 23.2531 34.1813C23.6167 34.3934 24.1017 34.5525 24.7076 34.6586L25.5031 34.7949C26.3063 34.9313 27.0408 35.1207 27.7076 35.3631C28.3745 35.6055 28.8972 35.954 29.2758 36.4086C29.6699 36.8631 29.8667 37.4691 29.8667 38.2267C29.8667 39.348 29.4499 40.2191 28.6167 40.8404C27.7835 41.4617 26.6622 41.7722 25.2531 41.7722ZM32.6031 45.9995V30.2495H34.8985V31.8631H35.2622C35.5499 31.3631 35.9817 30.9161 36.5576 30.5222C37.1485 30.1282 37.9895 29.9313 39.0804 29.9313C40.0195 29.9313 40.8758 30.1586 41.6485 30.6131C42.4363 31.0676 43.0649 31.7267 43.5349 32.5904C44.0195 33.4389 44.2622 34.4692 44.2622 35.6813V36.0222C44.2622 37.2343 44.0272 38.2722 43.5576 39.1358C43.0876 39.9843 42.459 40.6358 41.6713 41.0904C40.8831 41.5449 40.0195 41.7722 39.0804 41.7722C38.3531 41.7722 37.7395 41.6813 37.2395 41.4995C36.7395 41.3176 36.3376 41.0904 36.0349 40.8176C35.7317 40.5298 35.4895 40.2343 35.3076 39.9313H34.944V45.9995H32.6031ZM38.3985 39.7267C39.4285 39.7267 40.2695 39.401 40.9213 38.7495C41.5726 38.098 41.8985 37.1661 41.8985 35.954V35.7495C41.8985 34.5525 41.5649 33.6282 40.8985 32.9767C40.2467 32.3252 39.4135 31.9995 38.3985 31.9995C37.3985 31.9995 36.5649 32.3252 35.8985 32.9767C35.2467 33.6282 34.9213 34.5525 34.9213 35.7495V35.954C34.9213 37.1661 35.2467 38.098 35.8985 38.7495C36.5649 39.401 37.3985 39.7267 38.3985 39.7267ZM52.299 41.7722C51.1626 41.7722 50.1699 41.5372 49.3217 41.0676C48.4731 40.5828 47.8063 39.9086 47.3217 39.0449C46.8517 38.1661 46.6172 37.151 46.6172 35.9995V35.7267C46.6172 34.5601 46.8517 33.5449 47.3217 32.6813C47.7913 31.8025 48.4426 31.1282 49.2763 30.6586C50.1245 30.1737 51.1017 29.9313 52.2081 29.9313C53.2835 29.9313 54.2231 30.1737 55.0263 30.6586C55.8445 31.1282 56.4808 31.7873 56.9354 32.6358C57.3899 33.4843 57.6172 34.4767 57.6172 35.6131V36.4995H49.0035C49.0335 37.4843 49.3595 38.2722 49.9808 38.8631C50.6172 39.4389 51.4049 39.7267 52.3445 39.7267C53.2231 39.7267 53.8822 39.5298 54.3217 39.1358C54.7763 38.7419 55.1245 38.2873 55.3672 37.7722L57.299 38.7722C57.0867 39.1964 56.7763 39.6434 56.3672 40.1131C55.9731 40.5828 55.4504 40.9767 54.799 41.2949C54.1472 41.6131 53.314 41.7722 52.299 41.7722ZM49.0263 34.704H55.2308C55.1699 33.8555 54.8672 33.1964 54.3217 32.7267C53.7763 32.2419 53.064 31.9995 52.1854 31.9995C51.3063 31.9995 50.5867 32.2419 50.0263 32.7267C49.4808 33.1964 49.1472 33.8555 49.0263 34.704ZM65.6395 41.7722C64.5635 41.7722 63.5863 41.5449 62.7076 41.0904C61.844 40.6358 61.1545 39.9767 60.6395 39.1131C60.1395 38.2495 59.8895 37.2116 59.8895 35.9995V35.704C59.8895 34.4919 60.1395 33.4616 60.6395 32.6131C61.1545 31.7495 61.844 31.0904 62.7076 30.6358C63.5863 30.1661 64.5635 29.9313 65.6395 29.9313C66.7154 29.9313 67.6317 30.1282 68.3895 30.5222C69.1472 30.9161 69.7531 31.4389 70.2076 32.0904C70.6772 32.7419 70.9804 33.4616 71.1167 34.2495L68.844 34.7267C68.7681 34.2267 68.609 33.7722 68.3667 33.3631C68.1245 32.954 67.7835 32.6282 67.344 32.3858C66.9045 32.1434 66.3517 32.0222 65.6849 32.0222C65.0336 32.0222 64.4426 32.1737 63.9122 32.4767C63.3972 32.7646 62.9881 33.1889 62.6849 33.7495C62.3817 34.2949 62.2304 34.9616 62.2304 35.7495V35.954C62.2304 36.7419 62.3817 37.4161 62.6849 37.9767C62.9881 38.5373 63.3972 38.9616 63.9122 39.2495C64.4426 39.5373 65.0336 39.6813 65.6849 39.6813C66.6699 39.6813 67.4199 39.4313 67.9349 38.9313C68.4499 38.4161 68.7758 37.7646 68.9122 36.9767L71.1849 37.4995C71.0031 38.2722 70.6772 38.9843 70.2076 39.6358C69.7531 40.2873 69.1472 40.8101 68.3895 41.204C67.6317 41.5826 66.7154 41.7722 65.6395 41.7722ZM77.6676 41.454C76.9858 41.454 76.4404 41.2495 76.0313 40.8404C75.6372 40.4313 75.4404 39.8858 75.4404 39.204V32.2267H72.3495V30.2495H75.4404V26.5449H77.7813V30.2495H81.1222V32.2267H77.7813V38.7949C77.7813 39.2495 77.9935 39.4767 78.4176 39.4767H80.7585V41.454H77.6676ZM88.7231 41.7722C87.6017 41.7722 86.6017 41.5449 85.7231 41.0904C84.8595 40.6207 84.1776 39.954 83.6776 39.0904C83.1776 38.2267 82.9276 37.204 82.9276 36.0222V35.6813C82.9276 34.4995 83.1776 33.4843 83.6776 32.6358C84.1776 31.7722 84.8595 31.1055 85.7231 30.6358C86.6017 30.1661 87.6017 29.9313 88.7231 29.9313C89.844 29.9313 90.844 30.1661 91.7231 30.6358C92.6017 31.1055 93.2913 31.7722 93.7913 32.6358C94.2913 33.4843 94.5413 34.4995 94.5413 35.6813V36.0222C94.5413 37.204 94.2913 38.2267 93.7913 39.0904C93.2913 39.954 92.6017 40.6207 91.7231 41.0904C90.844 41.5449 89.844 41.7722 88.7231 41.7722ZM88.7231 39.6813C89.7531 39.6813 90.5867 39.3555 91.2231 38.704C91.8745 38.0373 92.2004 37.1207 92.2004 35.954V35.7495C92.2004 34.5828 91.8822 33.6737 91.2458 33.0222C90.6095 32.3555 89.7685 32.0222 88.7231 32.0222C87.7076 32.0222 86.8745 32.3555 86.2231 33.0222C85.5867 33.6737 85.2685 34.5828 85.2685 35.7495V35.954C85.2685 37.1207 85.5867 38.0373 86.2231 38.704C86.8745 39.3555 87.7076 39.6813 88.7231 39.6813ZM97.4554 41.454V30.2495H99.7508V31.5676H100.114C100.296 31.098 100.584 30.7571 100.978 30.5449C101.387 30.3176 101.887 30.204 102.478 30.204H103.819V32.3176H102.387C101.63 32.3176 101.009 32.5298 100.524 32.954C100.039 33.3631 99.7963 33.9995 99.7963 34.8631V41.454H97.4554Z" fill="white"/>
</svg>
