<svg xmlns="http://www.w3.org/2000/svg" width="208" height="50" viewBox="0 0 208 50" fill="none">
  <g clip-path="url(#clip0_941_115)">
    <path d="M40.2959 20.455V4.5459H42.7504V11.3641H49.4323V4.5459H51.8868V20.455H49.4323V13.5914H42.7504V20.455H40.2959ZM60.4154 20.7732C59.2791 20.7732 58.2864 20.5383 57.4382 20.0686C56.5895 19.5838 55.9227 18.9095 55.4382 18.0459C54.9682 17.1671 54.7336 16.1519 54.7336 15.0004V14.7277C54.7336 13.561 54.9682 12.5459 55.4382 11.6823C55.9077 10.8035 56.5591 10.1292 57.3927 9.65953C58.2409 9.17467 59.2182 8.93226 60.3245 8.93226C61.4 8.93226 62.3395 9.17467 63.1427 9.65953C63.9609 10.1292 64.5973 10.7883 65.0518 11.6368C65.5064 12.4853 65.7336 13.4777 65.7336 14.6141V15.5004H57.12C57.15 16.4853 57.4759 17.2732 58.0973 17.8641C58.7336 18.4399 59.5214 18.7277 60.4609 18.7277C61.3395 18.7277 61.9986 18.5308 62.4382 18.1368C62.8927 17.7429 63.2409 17.2883 63.4836 16.7732L65.4154 17.7732C65.2032 18.1974 64.8927 18.6444 64.4836 19.1141C64.0895 19.5838 63.5668 19.9777 62.9154 20.2959C62.2636 20.6141 61.4304 20.7732 60.4154 20.7732ZM57.1427 13.705H63.3473C63.2864 12.8565 62.9836 12.1974 62.4382 11.7277C61.8927 11.2429 61.1804 11.0004 60.3018 11.0004C59.4227 11.0004 58.7032 11.2429 58.1427 11.7277C57.5973 12.1974 57.2636 12.8565 57.1427 13.705ZM72.0286 20.7732C71.2254 20.7732 70.5059 20.6368 69.8695 20.3641C69.2482 20.0914 68.7482 19.6899 68.3695 19.1595C68.0059 18.6292 67.8241 17.9853 67.8241 17.2277C67.8241 16.455 68.0059 15.8186 68.3695 15.3186C68.7482 14.8035 69.2559 14.4171 69.8923 14.1595C70.5436 13.9019 71.2786 13.7732 72.0968 13.7732H75.5059V13.0459C75.5059 12.3944 75.3086 11.8717 74.915 11.4777C74.5209 11.0838 73.915 10.8868 73.0968 10.8868C72.2936 10.8868 71.68 11.0762 71.2559 11.455C70.8313 11.8338 70.5514 12.3262 70.415 12.9323L68.2332 12.2277C68.415 11.6217 68.7027 11.0762 69.0968 10.5914C69.5059 10.0914 70.0436 9.68985 70.7104 9.38681C71.3768 9.08376 72.18 8.93226 73.1195 8.93226C74.5741 8.93226 75.7177 9.30349 76.5514 10.0459C77.3845 10.7883 77.8014 11.8414 77.8014 13.205V17.8186C77.8014 18.2732 78.0132 18.5004 78.4377 18.5004H79.3923V20.455H77.6423C77.1118 20.455 76.68 20.3186 76.3468 20.0459C76.0132 19.7732 75.8468 19.4019 75.8468 18.9323V18.8641H75.5059C75.3845 19.0914 75.2027 19.3565 74.9604 19.6595C74.7177 19.9626 74.3618 20.2277 73.8923 20.455C73.4223 20.6671 72.8014 20.7732 72.0286 20.7732ZM72.3695 18.8414C73.3086 18.8414 74.0664 18.5762 74.6423 18.0459C75.2177 17.5004 75.5059 16.758 75.5059 15.8186V15.5914H72.2332C71.6118 15.5914 71.1118 15.7277 70.7332 16.0004C70.3541 16.258 70.165 16.6444 70.165 17.1595C70.165 17.6747 70.3618 18.0838 70.7559 18.3868C71.1495 18.6899 71.6877 18.8414 72.3695 18.8414ZM81.6682 20.455V4.5459H84.0091V20.455H81.6682ZM91.6877 20.455C91.0059 20.455 90.4604 20.2504 90.0513 19.8414C89.6573 19.4323 89.4604 18.8868 89.4604 18.205V11.2277H86.3695V9.25044H89.4604V5.5459H91.8014V9.25044H95.1423V11.2277H91.8014V17.7959C91.8014 18.2504 92.0136 18.4777 92.4377 18.4777H94.7786V20.455H91.6877ZM97.8927 20.455V4.5459H100.234V10.8414H100.597C100.749 10.5535 100.961 10.2732 101.234 10.0004C101.521 9.72772 101.893 9.50803 102.347 9.34135C102.817 9.15953 103.408 9.06863 104.12 9.06863C104.968 9.06863 105.718 9.25804 106.37 9.63681C107.036 10.0156 107.559 10.5535 107.938 11.2504C108.317 11.9323 108.506 12.758 108.506 13.7277V20.455H106.165V13.9095C106.165 12.9399 105.923 12.2277 105.438 11.7732C104.953 11.3035 104.286 11.0686 103.438 11.0686C102.468 11.0686 101.688 11.3868 101.097 12.0232C100.521 12.6595 100.234 13.5838 100.234 14.7959V20.455H97.8927ZM40.2959 45.455V29.5459H42.7504V45.455H40.2959ZM46.1345 45.455V34.2504H48.43V35.9323H48.7936C49.0059 35.4777 49.3845 35.0535 49.93 34.6595C50.4754 34.2656 51.2864 34.0686 52.3618 34.0686C53.2104 34.0686 53.9604 34.258 54.6118 34.6368C55.2786 35.0156 55.8014 35.5535 56.18 36.2504C56.5591 36.9323 56.7482 37.758 56.7482 38.7277V45.455H54.4073V38.9095C54.4073 37.9398 54.165 37.2277 53.68 36.7732C53.1954 36.3035 52.5286 36.0686 51.68 36.0686C50.7104 36.0686 49.93 36.3868 49.3391 37.0232C48.7636 37.6595 48.4754 38.5838 48.4754 39.7959V45.455H46.1345ZM64.7082 45.7732C63.2841 45.7732 62.1023 45.455 61.1627 44.8186C60.2232 44.1823 59.6477 43.2201 59.4354 41.9323L61.6173 41.4095C61.7386 42.0308 61.9432 42.5232 62.2309 42.8868C62.5186 43.2504 62.875 43.508 63.2991 43.6595C63.7386 43.811 64.2082 43.8868 64.7082 43.8868C65.4504 43.8868 66.0186 43.7429 66.4127 43.455C66.8218 43.1671 67.0264 42.7959 67.0264 42.3414C67.0264 41.8868 66.8368 41.5535 66.4582 41.3414C66.0795 41.1292 65.5186 40.955 64.7764 40.8186L64.0036 40.6823C63.2459 40.5459 62.5568 40.3489 61.9354 40.0914C61.3141 39.8338 60.8218 39.4777 60.4582 39.0232C60.0945 38.5686 59.9127 37.9853 59.9127 37.2732C59.9127 36.2126 60.3068 35.3944 61.0945 34.8186C61.8823 34.2277 62.9277 33.9323 64.2309 33.9323C65.4886 33.9323 66.5186 34.2201 67.3218 34.7959C68.14 35.3565 68.6704 36.1217 68.9127 37.0914L66.7309 37.705C66.5945 37.0232 66.3068 36.5459 65.8673 36.2732C65.4277 35.9853 64.8823 35.8414 64.2309 35.8414C63.5945 35.8414 63.0945 35.9626 62.7309 36.205C62.3673 36.4323 62.1854 36.758 62.1854 37.1823C62.1854 37.6368 62.3595 37.9701 62.7082 38.1823C63.0718 38.3944 63.5568 38.5535 64.1627 38.6595L64.9582 38.7959C65.7614 38.9323 66.4959 39.1217 67.1627 39.3641C67.8295 39.6065 68.3523 39.955 68.7309 40.4095C69.125 40.8641 69.3218 41.4701 69.3218 42.2277C69.3218 43.3489 68.905 44.2201 68.0718 44.8414C67.2386 45.4627 66.1173 45.7732 64.7082 45.7732ZM72.0582 50.0004V34.2504H74.3536V35.8641H74.7173C75.005 35.3641 75.4368 34.9171 76.0127 34.5232C76.6036 34.1292 77.4445 33.9323 78.5354 33.9323C79.4745 33.9323 80.3309 34.1595 81.1036 34.6141C81.8914 35.0686 82.52 35.7277 82.99 36.5914C83.4745 37.4399 83.7173 38.4701 83.7173 39.6823V40.0232C83.7173 41.2353 83.4823 42.2732 83.0127 43.1368C82.5427 43.9853 81.9141 44.6368 81.1264 45.0914C80.3382 45.5459 79.4745 45.7732 78.5354 45.7732C77.8082 45.7732 77.1945 45.6823 76.6945 45.5004C76.1945 45.3186 75.7927 45.0914 75.49 44.8186C75.1868 44.5308 74.9445 44.2353 74.7627 43.9323H74.3991V50.0004H72.0582ZM77.8536 43.7277C78.8836 43.7277 79.7245 43.4019 80.3764 42.7504C81.0277 42.0989 81.3536 41.1671 81.3536 39.955V39.7504C81.3536 38.5535 81.02 37.6292 80.3536 36.9777C79.7018 36.3262 78.8686 36.0004 77.8536 36.0004C76.8536 36.0004 76.02 36.3262 75.3536 36.9777C74.7018 37.6292 74.3764 38.5535 74.3764 39.7504V39.955C74.3764 41.1671 74.7018 42.0989 75.3536 42.7504C76.02 43.4019 76.8536 43.7277 77.8536 43.7277ZM91.7541 45.7732C90.6177 45.7732 89.625 45.5382 88.7768 45.0686C87.9282 44.5838 87.2614 43.9095 86.7768 43.0459C86.3068 42.1671 86.0723 41.1519 86.0723 40.0004V39.7277C86.0723 38.561 86.3068 37.5459 86.7768 36.6823C87.2464 35.8035 87.8977 35.1292 88.7313 34.6595C89.5795 34.1747 90.5568 33.9323 91.6632 33.9323C92.7386 33.9323 93.6782 34.1747 94.4813 34.6595C95.2995 35.1292 95.9359 35.7883 96.3904 36.6368C96.845 37.4853 97.0723 38.4777 97.0723 39.6141V40.5004H88.4586C88.4886 41.4853 88.8145 42.2732 89.4359 42.8641C90.0723 43.4399 90.86 43.7277 91.7995 43.7277C92.6782 43.7277 93.3373 43.5308 93.7768 43.1368C94.2313 42.7429 94.5795 42.2883 94.8223 41.7732L96.7541 42.7732C96.5418 43.1974 96.2313 43.6444 95.8223 44.1141C95.4282 44.5838 94.9054 44.9777 94.2541 45.2959C93.6023 45.6141 92.7691 45.7732 91.7541 45.7732ZM88.4814 38.705H94.6859C94.625 37.8565 94.3223 37.1974 93.7768 36.7277C93.2313 36.2429 92.5191 36.0004 91.6404 36.0004C90.7614 36.0004 90.0418 36.2429 89.4813 36.7277C88.9359 37.1974 88.6023 37.8565 88.4814 38.705ZM105.095 45.7732C104.019 45.7732 103.041 45.5459 102.163 45.0914C101.299 44.6368 100.61 43.9777 100.095 43.1141C99.5945 42.2504 99.3445 41.2126 99.3445 40.0004V39.705C99.3445 38.4929 99.5945 37.4626 100.095 36.6141C100.61 35.7504 101.299 35.0914 102.163 34.6368C103.041 34.1671 104.019 33.9323 105.095 33.9323C106.17 33.9323 107.087 34.1292 107.845 34.5232C108.602 34.9171 109.208 35.4399 109.663 36.0914C110.132 36.7429 110.435 37.4626 110.572 38.2504L108.299 38.7277C108.223 38.2277 108.064 37.7732 107.822 37.3641C107.58 36.955 107.239 36.6292 106.799 36.3868C106.36 36.1444 105.807 36.0232 105.14 36.0232C104.489 36.0232 103.898 36.1747 103.367 36.4777C102.852 36.7656 102.443 37.1899 102.14 37.7504C101.837 38.2959 101.685 38.9626 101.685 39.7504V39.955C101.685 40.7429 101.837 41.4171 102.14 41.9777C102.443 42.5383 102.852 42.9626 103.367 43.2504C103.898 43.5383 104.489 43.6823 105.14 43.6823C106.125 43.6823 106.875 43.4323 107.39 42.9323C107.905 42.4171 108.231 41.7656 108.367 40.9777L110.64 41.5004C110.458 42.2732 110.132 42.9853 109.663 43.6368C109.208 44.2883 108.602 44.811 107.845 45.205C107.087 45.5836 106.17 45.7732 105.095 45.7732ZM117.123 45.455C116.441 45.455 115.895 45.2504 115.486 44.8414C115.092 44.4323 114.895 43.8868 114.895 43.205V36.2277H111.805V34.2504H114.895V30.5459H117.236V34.2504H120.577V36.2277H117.236V42.7959C117.236 43.2504 117.449 43.4777 117.873 43.4777H120.214V45.455H117.123ZM128.178 45.7732C127.057 45.7732 126.057 45.5459 125.178 45.0914C124.315 44.6217 123.633 43.955 123.133 43.0914C122.633 42.2277 122.383 41.205 122.383 40.0232V39.6823C122.383 38.5004 122.633 37.4853 123.133 36.6368C123.633 35.7732 124.315 35.1065 125.178 34.6368C126.057 34.1671 127.057 33.9323 128.178 33.9323C129.299 33.9323 130.299 34.1671 131.178 34.6368C132.057 35.1065 132.746 35.7732 133.246 36.6368C133.746 37.4853 133.996 38.5004 133.996 39.6823V40.0232C133.996 41.205 133.746 42.2277 133.246 43.0914C132.746 43.955 132.057 44.6217 131.178 45.0914C130.299 45.5459 129.299 45.7732 128.178 45.7732ZM128.178 43.6823C129.208 43.6823 130.042 43.3565 130.678 42.705C131.33 42.0383 131.655 41.1217 131.655 39.955V39.7504C131.655 38.5838 131.337 37.6747 130.701 37.0232C130.065 36.3565 129.224 36.0232 128.178 36.0232C127.163 36.0232 126.33 36.3565 125.678 37.0232C125.042 37.6747 124.724 38.5838 124.724 39.7504V39.955C124.724 41.1217 125.042 42.0383 125.678 42.705C126.33 43.3565 127.163 43.6823 128.178 43.6823ZM136.91 45.455V34.2504H139.206V35.5686H139.57C139.751 35.0989 140.04 34.758 140.433 34.5459C140.842 34.3186 141.342 34.205 141.933 34.205H143.274V36.3186H141.842C141.085 36.3186 140.464 36.5308 139.979 36.955C139.494 37.3641 139.251 38.0004 139.251 38.8641V45.455H136.91Z" fill="black"/>
    <path d="M0.454102 45.455V4.5459H4.92856V23.039H27.3007V45.455H22.9861V27.5222H4.92856V45.455H0.454102Z" fill="black"/>
    <path d="M22.9863 16.6908V4.5459H27.301V16.6908H22.9863Z" fill="black"/>
    <path d="M0.454102 45.455V4.5459H4.92856V23.039H27.3007V45.455H22.9861V27.5222H4.92856V45.455H0.454102Z" stroke="black"/>
    <path d="M22.9863 16.6908V4.5459H27.301V16.6908H22.9863Z" stroke="black"/>
    <path d="M123.364 32.8933L123.355 32.8738C123.203 32.5023 122.997 32.0036 122.962 31.5796C122.92 31.0854 123.097 30.6967 123.793 30.6946L123.797 30.6944L123.799 30.6943C124.593 30.6645 125.289 30.6301 125.896 30.6002C127.785 30.5068 128.809 30.4563 129.851 30.7044C131.079 30.9969 132.294 31.6976 134.947 33.2275L135.301 33.4315C136.042 33.6641 136.19 34.0313 136.06 34.433C135.928 34.8417 135.484 35.2709 135.13 35.613C135.074 35.6675 135.058 35.6826 135.037 35.7028C134.977 35.7611 134.886 35.8052 134.767 35.8363C133.968 36.0447 131.585 35.7164 129.209 35.1758C126.834 34.6354 124.452 33.8807 123.65 33.2352C123.508 33.1207 123.41 33.0063 123.364 32.8933Z" fill="black"/>
    <path d="M131.528 36.1455C130.537 36.0089 129.529 35.7935 128.578 35.5486L128.54 35.5386C128.466 35.5196 128.393 35.5005 128.321 35.4812L128.296 35.4748C128.175 35.4423 128.054 35.4094 127.935 35.3762L127.909 35.369C127.705 35.3124 127.506 35.2549 127.311 35.1971L127.3 35.1939C127.101 35.1348 126.906 35.0755 126.718 35.0163L126.716 35.0159C125.915 34.7649 125.21 34.5178 124.668 34.3173L124.592 34.289C124.541 34.2704 124.493 34.2521 124.445 34.2344L124.376 34.2082L124.371 34.2064L124.309 34.1826L124.244 34.1579C124.183 34.1348 124.126 34.1128 124.073 34.092L124.061 34.0874L124.011 34.0679L124.01 34.0674L123.957 34.0469L123.918 34.0314L123.908 34.0274L123.87 34.0127L123.861 34.0089L123.817 33.9914L123.798 33.9839L123.775 33.9749L123.737 33.9594L123.733 33.9581L123.701 33.9451L123.676 33.9351L123.669 33.9319L123.639 33.9198L123.628 33.9153L123.612 33.9088L123.588 33.899L123.587 33.8986L123.567 33.8905L123.555 33.8853L123.55 33.8833L123.535 33.8772L123.531 33.8754L123.524 33.8725L123.516 33.8692C123.509 33.866 123.502 33.8634 123.495 33.8611L123.492 33.8604L123.492 33.8602L123.49 33.8596L123.485 33.8584L123.482 33.8578L123.482 33.8578L123.479 33.8572L123.477 33.8568L123.475 33.8566L123.474 33.8563L123.472 33.8561L123.471 33.8559L123.469 33.8556L123.466 33.8553H123.466L123.464 33.855L123.463 33.855L123.461 33.8549L123.46 33.8548L123.458 33.8547L123.456 33.8546H123.456L123.453 33.8545H123.45L123.45 33.8545L123.448 33.8546L123.447 33.8546L123.445 33.8547L123.444 33.8547L123.443 33.8548L123.44 33.8549L123.438 33.8552L123.435 33.8554L123.434 33.8555L123.433 33.8557L123.431 33.8559L123.43 33.856L123.428 33.8564L123.428 33.8564L123.425 33.8568L123.425 33.8569L123.423 33.8573L123.42 33.8578L123.419 33.8581L123.418 33.8584L123.416 33.8589L123.413 33.8596L123.411 33.8603L123.41 33.8605L123.409 33.8609L123.407 33.8614L123.406 33.8617L123.405 33.8624L123.404 33.8625L123.402 33.8634L123.4 33.8643L123.399 33.8645L123.397 33.8652L123.396 33.8657L123.395 33.8661L123.394 33.8669L123.393 33.8671L123.391 33.8681L123.389 33.8692L123.388 33.8695L123.386 33.8703L123.385 33.8709L123.385 33.8714L123.383 33.8723L123.382 33.8726L123.38 33.8738L123.379 33.8751L123.378 33.8754L123.376 33.8764L123.375 33.8769L123.375 33.8777L123.373 33.8786L123.373 33.8791L123.371 33.8804L123.369 33.8819L123.369 33.8822L123.367 33.8834L123.366 33.8839L123.365 33.8849L123.365 33.8858L123.364 33.8864L123.362 33.8878L123.362 33.888L123.36 33.8896L123.359 33.8913L123.358 33.8918L123.356 33.8938L123.355 33.8946L123.355 33.896L123.353 33.8981L123.351 33.8999C123.344 33.909 123.339 33.9194 123.335 33.9308L123.139 34.5364C123.131 34.56 123.133 34.5844 123.142 34.6068C123.426 35.5692 124.146 36.3962 125.1 37.0435C125.998 37.652 127.104 38.1022 128.25 38.3564C129.395 38.6105 130.582 38.6692 131.642 38.495C132.775 38.3089 133.762 37.8574 134.404 37.0952L134.404 37.0955C134.42 37.0775 134.427 37.0564 134.428 37.0349C134.482 36.8005 134.467 35.8959 134.463 36.6056C134.454 36.5572 134.41 36.5154 134.352 36.5048C134.345 36.5035 134.337 36.5027 134.33 36.5024C134.233 36.4945 133.094 36.3994 131.528 36.1455Z" fill="black"/>
    <path d="M130.019 31.3148L130.151 32.3716L131.34 32.659C131.411 32.6761 131.456 32.739 131.442 32.7999C131.433 32.8389 131.401 32.8675 131.361 32.8787L130.263 33.2439L130.401 34.3094C130.41 34.3727 130.358 34.4261 130.287 34.4287C130.239 34.4304 130.195 34.4092 130.167 34.376L129.359 33.5458L128.256 33.917L128.256 33.9176C128.19 33.9396 128.113 33.9093 128.083 33.8499C128.064 33.8117 128.069 33.7707 128.092 33.7404L128.689 32.8606L127.868 32.0245C127.82 31.9748 127.823 31.9028 127.876 31.8634C127.911 31.8374 127.96 31.8323 128.002 31.8463L129.179 32.1348L129.775 31.2469C129.81 31.194 129.89 31.1794 129.952 31.2145C129.993 31.2375 130.017 31.2761 130.019 31.3148Z" fill="#C8E2C5"/>
    <path fill-rule="evenodd" clip-rule="evenodd" d="M128.958 35.1185C126.715 34.5943 124.514 33.8885 123.695 33.2744L123.375 33.8795C123.405 33.8407 123.463 33.8236 123.519 33.8407C123.526 33.843 123.533 33.8456 123.54 33.8487C123.677 33.9063 126.048 34.8919 128.846 35.5901C131.652 36.2565 134.205 36.47 134.354 36.4821C134.361 36.4823 134.369 36.4831 134.376 36.4844C134.434 36.495 134.477 36.5368 134.487 36.5851L134.483 35.8821C133.497 35.9801 131.205 35.6321 128.958 35.1185Z" fill="#C8E2C5"/>
  </g>
  <defs>
    <clipPath id="clip0_941_115">
      <rect width="207.273" height="50" fill="white"/>
    </clipPath>
  </defs>
</svg>